<?xml version="1.0" encoding="utf-8"?>
<!-- Generator: Adobe Illustrator 26.5.0, SVG Export Plug-In . SVG Version: 6.00 Build 0)  -->
<svg version="1.1" id="Capa_1" xmlns="http://www.w3.org/2000/svg" xmlns:xlink="http://www.w3.org/1999/xlink" x="0px" y="0px"
	 viewBox="0 0 192.2 93.6" style="enable-background:new 0 0 192.2 93.6;" xml:space="preserve">
<style type="text/css">
	.st0{fill:#FFFFFF;}
</style>
<g>
	<path class="st0" d="M45.09,84.29c-0.36,0-0.72-0.06-1.08-0.17c-1.82-0.59-2.81-2.55-2.22-4.36l21.61-66.18
		c0.59-1.82,2.55-2.81,4.36-2.22c1.82,0.59,2.81,2.55,2.22,4.36L48.38,81.91C47.9,83.37,46.55,84.29,45.09,84.29z"/>
	<g>
		<path class="st0" d="M34.12,79.99c-0.55,0-1.11-0.13-1.63-0.41c-2.96-1.59-5.12-3.73-6.43-6.37c-1.65-3.33-1.83-7.26-0.56-11.69
			c0.74-2.56,1.29-6.05-0.27-8.12c-1.58-2.1-4.83-2.19-4.87-2.19c-1.91,0-3.46-1.55-3.46-3.46c0-1.9,1.54-3.45,3.43-3.46
			c0.12,0,3.35-0.11,4.91-2.22c1.53-2.07,0.98-5.54,0.25-8.09c-1.49-5.2-0.99-9.67,1.5-13.29c4.39-6.39,13.36-7.25,13.74-7.29
			c1.9-0.17,3.58,1.24,3.75,3.14c0.17,1.9-1.23,3.58-3.13,3.75c-1.7,0.16-6.58,1.26-8.67,4.33c-1.27,1.86-1.44,4.3-0.54,7.44
			c1.7,5.92,1.23,10.7-1.4,14.19c-0.42,0.56-0.87,1.05-1.35,1.49c0.47,0.44,0.93,0.93,1.35,1.49c2.63,3.49,3.1,8.27,1.4,14.19
			c-1.38,4.8-0.23,7.99,3.6,10.05c1.68,0.9,2.32,3,1.42,4.68C36.55,79.32,35.35,79.99,34.12,79.99z"/>
		<path class="st0" d="M68.28,82.11c-1.77,0-3.28-1.36-3.44-3.16c-0.17-1.9,1.23-3.58,3.13-3.75c1.7-0.16,6.58-1.26,8.67-4.33
			c1.27-1.86,1.44-4.3,0.54-7.44c-1.7-5.92-1.23-10.7,1.4-14.19c0.42-0.56,0.87-1.05,1.35-1.49c-0.47-0.44-0.93-0.93-1.35-1.49
			c-2.63-3.49-3.1-8.27-1.4-14.19c0.73-2.55,1.33-6.25-1.92-8.93c-1.47-1.22-1.68-3.4-0.47-4.87c1.22-1.47,3.4-1.68,4.87-0.47
			c3.25,2.68,6.62,7.67,4.17,16.19c-0.73,2.54-1.28,6.01,0.25,8.09c1.56,2.11,4.79,2.22,4.91,2.22c1.9,0.01,3.43,1.56,3.43,3.46
			c0,1.9-1.54,3.45-3.43,3.46c-0.11,0-3.35,0.11-4.92,2.22c-1.53,2.07-0.98,5.54-0.25,8.09c1.49,5.2,0.99,9.67-1.5,13.29
			c-4.39,6.39-13.36,7.25-13.74,7.29C68.48,82.1,68.38,82.11,68.28,82.11z M88.97,51.2L88.97,51.2L88.97,51.2z"/>
	</g>
</g>
<g>
	<path class="st0" d="M120.39,37.94h-4.54l-2.94-5.7l-1.19,0.71v4.98h-4.04v-14.9h4.04v6.47c0.2-0.4,0.61-1.04,1.23-1.91l3.13-4.56
		h4.4l-4.7,6.67L120.39,37.94z"/>
	<path class="st0" d="M127.33,38.14c-1.92,0-3.42-0.51-4.48-1.53s-1.59-2.48-1.59-4.37c0-1.95,0.49-3.45,1.48-4.49
		c0.98-1.04,2.39-1.56,4.22-1.56c1.74,0,3.08,0.45,4.03,1.36s1.42,2.21,1.42,3.92v1.77h-7.12c0.03,0.65,0.26,1.15,0.71,1.52
		c0.44,0.37,1.05,0.55,1.82,0.55c0.7,0,1.34-0.07,1.93-0.2c0.59-0.13,1.22-0.36,1.91-0.68v2.86c-0.62,0.32-1.27,0.54-1.94,0.66
		C129.05,38.08,128.26,38.14,127.33,38.14z M127.1,28.9c-0.47,0-0.86,0.15-1.18,0.44s-0.5,0.76-0.56,1.39h3.42
		c-0.01-0.56-0.17-1-0.47-1.33C128.02,29.07,127.61,28.9,127.1,28.9z"/>
	<path class="st0" d="M140.23,38.14c-1.92,0-3.42-0.51-4.48-1.53s-1.59-2.48-1.59-4.37c0-1.95,0.49-3.45,1.48-4.49
		c0.98-1.04,2.39-1.56,4.22-1.56c1.74,0,3.08,0.45,4.03,1.36s1.42,2.21,1.42,3.92v1.77h-7.12c0.03,0.65,0.26,1.15,0.71,1.52
		c0.44,0.37,1.05,0.55,1.82,0.55c0.7,0,1.34-0.07,1.93-0.2c0.59-0.13,1.22-0.36,1.91-0.68v2.86c-0.62,0.32-1.27,0.54-1.94,0.66
		C141.95,38.08,141.16,38.14,140.23,38.14z M140,28.9c-0.47,0-0.86,0.15-1.18,0.44s-0.5,0.76-0.56,1.39h3.42
		c-0.01-0.56-0.17-1-0.47-1.33C140.91,29.07,140.51,28.9,140,28.9z"/>
	<path class="st0" d="M154.49,38.14c-0.58,0-1.11-0.1-1.57-0.29c-0.46-0.19-0.92-0.54-1.38-1.04h-0.18
		c0.12,0.81,0.18,1.31,0.18,1.51v4.64h-3.98V26.39h3.24l0.56,1.47h0.18c0.74-1.11,1.76-1.67,3.07-1.67c1.28,0,2.28,0.53,3.01,1.59
		c0.73,1.06,1.09,2.51,1.09,4.36c0,1.86-0.38,3.33-1.14,4.4S155.79,38.14,154.49,38.14z M153.15,29.32c-0.58,0-0.99,0.21-1.23,0.63
		c-0.23,0.42-0.36,1.04-0.38,1.86v0.32c0,0.99,0.13,1.71,0.4,2.15c0.26,0.44,0.68,0.66,1.25,0.66c0.51,0,0.88-0.22,1.11-0.66
		c0.23-0.44,0.35-1.16,0.35-2.18c0-0.99-0.12-1.7-0.35-2.13C154.07,29.53,153.69,29.32,153.15,29.32z"/>
</g>
<g>
	<path class="st0" d="M106.45,46c-1.3,0-2.31,0.53-3.04,1.59c-0.73,1.06-1.09,2.53-1.09,4.4c0,3.88,1.48,5.83,4.43,5.83
		c0.89,0,1.76-0.12,2.6-0.37c0.84-0.25,1.68-0.55,2.53-0.9v4.61c-1.68,0.75-3.59,1.12-5.72,1.12c-3.05,0-5.38-0.88-7.01-2.65
		c-1.62-1.77-2.44-4.32-2.44-7.66c0-2.09,0.39-3.93,1.18-5.51c0.79-1.58,1.92-2.8,3.4-3.65c1.48-0.85,3.21-1.28,5.21-1.28
		c2.18,0,4.27,0.47,6.25,1.42l-1.67,4.29c-0.75-0.35-1.49-0.64-2.24-0.88S107.31,46,106.45,46z"/>
	<path class="st0" d="M128.2,62l-0.99-3.78h-6.56L119.63,62h-5.99l6.59-20.27h7.28L134.16,62H128.2z M126.07,53.75l-0.87-3.31
		c-0.2-0.74-0.45-1.69-0.74-2.86s-0.48-2.01-0.57-2.51c-0.08,0.47-0.25,1.24-0.49,2.32c-0.24,1.08-0.79,3.2-1.62,6.37H126.07z"/>
	<path class="st0" d="M136.35,62V41.82h5.45V57.6h7.77V62H136.35z"/>
	<path class="st0" d="M161.6,62l-4.13-14.54h-0.12c0.19,2.48,0.29,4.4,0.29,5.77V62h-4.83V41.82h7.26l4.21,14.33h0.11l4.13-14.33
		h7.28V62h-5.01v-8.85c0-0.46,0.01-0.97,0.02-1.53s0.08-1.94,0.19-4.13h-0.12L166.79,62H161.6z"/>
</g>
<g>
	<path class="st0" d="M102.94,76.56c-1.87,0-2.8-1.03-2.8-3.08c0-1.02,0.25-1.8,0.76-2.34c0.51-0.54,1.24-0.81,2.19-0.81
		c0.69,0,1.32,0.14,1.87,0.41l-0.48,1.27c-0.26-0.1-0.5-0.19-0.72-0.26c-0.22-0.07-0.44-0.1-0.67-0.1c-0.85,0-1.28,0.6-1.28,1.82
		c0,1.17,0.43,1.76,1.28,1.76c0.31,0,0.61-0.04,0.88-0.13c0.27-0.08,0.54-0.22,0.81-0.39v1.4c-0.27,0.17-0.53,0.28-0.8,0.35
		C103.69,76.53,103.35,76.56,102.94,76.56z"/>
	<path class="st0" d="M117.11,73.44c0,0.98-0.26,1.74-0.77,2.29s-1.23,0.83-2.15,0.83c-0.58,0-1.08-0.13-1.53-0.38
		c-0.44-0.25-0.78-0.61-1.02-1.09s-0.35-1.02-0.35-1.65c0-0.98,0.26-1.74,0.77-2.29s1.23-0.82,2.16-0.82c0.58,0,1.08,0.13,1.53,0.38
		s0.78,0.61,1.02,1.08S117.11,72.81,117.11,73.44z M112.96,73.44c0,0.59,0.1,1.04,0.29,1.35c0.2,0.3,0.51,0.46,0.95,0.46
		c0.44,0,0.75-0.15,0.94-0.45c0.19-0.3,0.29-0.75,0.29-1.35c0-0.59-0.1-1.04-0.29-1.34s-0.51-0.45-0.95-0.45
		c-0.44,0-0.75,0.15-0.95,0.44C113.06,72.39,112.96,72.84,112.96,73.44z"/>
	<path class="st0" d="M125.87,76.56c-0.71,0-1.26-0.27-1.66-0.82c-0.4-0.55-0.6-1.31-0.6-2.28c0-0.98,0.21-1.75,0.62-2.3
		c0.41-0.55,0.97-0.82,1.69-0.82c0.76,0,1.33,0.29,1.73,0.88h0.05c-0.08-0.45-0.12-0.85-0.12-1.2V68.1h1.64v8.36h-1.26l-0.32-0.78
		h-0.07C127.2,76.26,126.63,76.56,125.87,76.56z M126.44,75.25c0.42,0,0.73-0.12,0.92-0.37c0.19-0.24,0.3-0.66,0.32-1.24v-0.18
		c0-0.64-0.1-1.11-0.3-1.39c-0.2-0.28-0.52-0.42-0.97-0.42c-0.37,0-0.65,0.15-0.85,0.46c-0.2,0.31-0.3,0.76-0.3,1.35
		s0.1,1.03,0.31,1.33C125.77,75.11,126.06,75.25,126.44,75.25z"/>
	<path class="st0" d="M139.15,76.56c-0.97,0-1.72-0.27-2.27-0.8s-0.82-1.29-0.82-2.27c0-1.01,0.25-1.78,0.75-2.33
		c0.5-0.55,1.2-0.82,2.09-0.82c0.85,0,1.51,0.24,1.98,0.73s0.71,1.15,0.71,2v0.79h-3.87c0.02,0.47,0.16,0.83,0.41,1.09
		s0.62,0.39,1.08,0.39c0.36,0,0.7-0.04,1.03-0.11s0.66-0.2,1.01-0.36v1.27c-0.29,0.14-0.59,0.25-0.92,0.32
		C140.01,76.52,139.62,76.56,139.15,76.56z M138.92,71.5c-0.35,0-0.62,0.11-0.82,0.33c-0.2,0.22-0.31,0.53-0.34,0.94h2.3
		c-0.01-0.4-0.11-0.72-0.32-0.94C139.54,71.61,139.26,71.5,138.92,71.5z"/>
	<path class="st0" d="M151.78,70.33c0.22,0,0.41,0.02,0.55,0.05l-0.12,1.54c-0.13-0.04-0.29-0.05-0.48-0.05
		c-0.52,0-0.93,0.13-1.22,0.4c-0.29,0.27-0.44,0.64-0.44,1.13v3.06h-1.64v-6h1.24l0.24,1.01h0.08c0.19-0.34,0.44-0.61,0.75-0.81
		C151.06,70.44,151.41,70.33,151.78,70.33z"/>
	<path class="st0" d="M163.11,74.67c0,0.62-0.21,1.08-0.64,1.41c-0.43,0.32-1.07,0.48-1.92,0.48c-0.44,0-0.81-0.03-1.12-0.09
		c-0.31-0.06-0.6-0.15-0.86-0.26v-1.35c0.3,0.14,0.65,0.26,1.03,0.36c0.38,0.1,0.72,0.15,1.01,0.15c0.59,0,0.89-0.17,0.89-0.52
		c0-0.13-0.04-0.23-0.12-0.31c-0.08-0.08-0.21-0.17-0.41-0.27c-0.19-0.1-0.45-0.22-0.77-0.36c-0.46-0.19-0.8-0.37-1.02-0.54
		c-0.22-0.16-0.37-0.35-0.47-0.57c-0.1-0.21-0.15-0.48-0.15-0.79c0-0.53,0.21-0.95,0.62-1.24c0.41-0.29,1-0.44,1.76-0.44
		c0.72,0,1.43,0.16,2.11,0.47l-0.49,1.18c-0.3-0.13-0.58-0.23-0.84-0.32s-0.53-0.12-0.8-0.12c-0.48,0-0.73,0.13-0.73,0.39
		c0,0.15,0.08,0.27,0.23,0.38c0.16,0.11,0.5,0.27,1.02,0.48c0.47,0.19,0.81,0.37,1.03,0.53s0.38,0.35,0.48,0.57
		S163.11,74.37,163.11,74.67z"/>
</g>
</svg>
